<svg width="24" height="24" viewBox="0 0 24 24" fill="none" xmlns="http://www.w3.org/2000/svg">
<g clip-path="url(#clip0_1223_52455)">
<path fill-rule="evenodd" clip-rule="evenodd" d="M17.6648 7.95372C18.1117 7.50678 18.1117 6.78214 17.6648 6.3352C17.2178 5.88826 16.4932 5.88827 16.0463 6.3352L12.0003 10.3812L7.95448 6.33538C7.50754 5.88844 6.78291 5.88844 6.33597 6.33538C5.88903 6.78232 5.88903 7.50695 6.33597 7.95389L10.3818 11.9997L6.33521 16.0463C5.88827 16.4932 5.88826 17.2178 6.3352 17.6648C6.78214 18.1117 7.50678 18.1117 7.95372 17.6648L12.0003 13.6182L16.047 17.665C16.494 18.1119 17.2186 18.1119 17.6656 17.665C18.1125 17.218 18.1125 16.4934 17.6656 16.0465L13.6188 11.9997L17.6648 7.95372Z" fill="#0F305E"/>
</g>
<defs>
<clipPath id="clip0_1223_52455">
<rect width="24" height="24" fill="white"/>
</clipPath>
</defs>
</svg>
